<?xml version="1.0" encoding="UTF-8" standalone="no"?>
<!-- Created with Inkscape (http://www.inkscape.org/) -->

<svg
   width="203.90776mm"
   height="124.19534mm"
   viewBox="0 0 203.90776 124.19534"
   version="1.1"
   id="svg5"
   sodipodi:docname="MAT-API.svg"
   inkscape:version="1.1.2 (b8e25be833, 2022-02-05)"
   xmlns:inkscape="http://www.inkscape.org/namespaces/inkscape"
   xmlns:sodipodi="http://sodipodi.sourceforge.net/DTD/sodipodi-0.dtd"
   xmlns="http://www.w3.org/2000/svg"
   xmlns:svg="http://www.w3.org/2000/svg">
  <sodipodi:namedview
     id="namedview7"
     pagecolor="#ffffff"
     bordercolor="#666666"
     borderopacity="1.0"
     inkscape:pageshadow="2"
     inkscape:pageopacity="0.0"
     inkscape:pagecheckerboard="0"
     inkscape:document-units="mm"
     showgrid="false"
     inkscape:zoom="0.75187991"
     inkscape:cx="443.55488"
     inkscape:cy="278.63492"
     inkscape:window-width="1876"
     inkscape:window-height="1016"
     inkscape:window-x="0"
     inkscape:window-y="27"
     inkscape:window-maximized="1"
     inkscape:current-layer="layer1"
     units="mm"
     fit-margin-top="0"
     fit-margin-left="0"
     fit-margin-right="0"
     fit-margin-bottom="0" />
  <defs
     id="defs2">
    <rect
       x="239.97961"
       y="181.50749"
       width="339.79648"
       height="97.492165"
       id="rect7167" />
  </defs>
  <g
     inkscape:label="Layer 1"
     inkscape:groupmode="layer"
     id="layer1"
     transform="translate(-4.2670238,-16.622359)">
    <path
       d="m 119.81012,140.19291 a 54.910074,54.910074 0 0 1 -10.72621,0.51859 c -8.64133,-0.43657 -17.13978,-2.95011 -24.402521,-7.67557 -3.220088,-2.0955 -6.291863,-4.66989 -7.958688,-8.128 -2.262264,-4.69635 -1.471099,-10.64154 1.759453,-14.732 a 14.820619,14.820619 0 0 1 4.270412,-3.64331 c 0.243395,-0.13758 0.492088,-0.26987 0.743495,-0.39687 a 16.022502,16.022502 0 0 1 8.85825,-1.6219 c 5.180433,0.56621 9.961539,3.73063 12.723769,8.15181 2.46058,3.94229 3.31788,8.59367 3.82328,13.25563 0.0952,0.87841 0.17725,1.75948 0.25658,2.63525 a 38.729621,38.729621 0 0 1 -2.06641,7.42421 2.5959011,2.5959011 0 0 0 -0.11641,0.35983 q 0.79375,1.72244 1.51078,3.47662 a 3.0576758,3.0576758 0 0 0 1.46321,0.37042 h 9.83984 z"
       fill="#f2f2f2"
       id="path9"
       style="stroke-width:0.264583" />
    <path
       d="m 108.28214,140.41782 a 0.53800639,0.53800639 0 0 1 -0.7143,-0.28046 c -0.0424,-0.10054 -0.082,-0.20108 -0.12441,-0.30162 q -0.57148,-1.38907 -1.19851,-2.75167 a 83.815842,83.815842 0 0 0 -23.328416,-30.18896 0.39101977,0.39101977 0 0 1 -0.163944,-0.36248 0.53774181,0.53774181 0 0 1 0.743495,-0.39687 0.50992881,0.50992881 0 0 1 0.111104,0.0688 84.010576,84.010576 0 0 1 11.710398,11.62844 85.329182,85.329182 0 0 1 9.236643,13.66837 q 1.07552,1.98438 2.04251,4.02431 c 0.12713,0.26988 0.25412,0.5424 0.3784,0.81491 q 0.79375,1.72243 1.51077,3.47662 c 0.008,0.0185 0.0159,0.0397 0.0239,0.0582 a 0.39149866,0.39149866 0 0 1 -0.22765,0.54241 z"
       fill="#ffffff"
       id="path11"
       style="stroke-width:0.264583" />
    <circle
       cx="73.190483"
       cy="95.203171"
       r="10.318749"
       fill="#00bfa6"
       id="circle13"
       style="stroke-width:0.264583" />
    <path
       d="m 72.167658,99.139533 a 1.0701708,1.0701708 0 0 1 -0.643922,-0.213894 l -0.01151,-0.0087 -2.424975,-1.856647 a 1.0773622,1.0773622 0 1 1 1.310502,-1.710386 l 1.570718,1.204404 3.711839,-4.840795 a 1.0773251,1.0773251 0 0 1 1.510507,-0.199395 l -0.02307,0.03134 0.02368,-0.03088 a 1.0785713,1.0785713 0 0 1 0.199395,1.510507 l -4.366024,5.693936 a 1.0777961,1.0777961 0 0 1 -0.85712,0.42046 z"
       fill="#ffffff"
       id="path15"
       style="stroke-width:0.264583" />
    <path
       d="M 207.8899,140.79537 H 4.5519015 a 0.28608559,0.29841266 0 0 1 0,-0.59682 H 207.8899 a 0.28608559,0.29841266 0 0 1 0,0.59682 z"
       fill="#3f3d56"
       id="path17"
       style="stroke-width:0.24539" />
    <circle
       cx="48.066391"
       cy="44.933594"
       r="7.6570253"
       fill="#2f2e41"
       id="circle19"
       style="stroke-width:0.264583" />
    <ellipse
       cx="0.90830702"
       cy="56.239162"
       rx="3.1684251"
       ry="2.3763182"
       transform="rotate(-45)"
       fill="#2f2e41"
       id="ellipse21"
       style="stroke-width:0.264583" />
    <ellipse
       cx="-13.272076"
       cy="63.447266"
       rx="2.3763182"
       ry="3.1684251"
       transform="rotate(-66.869561)"
       fill="#2f2e41"
       id="ellipse23"
       style="stroke-width:0.264583" />
    <path
       d="M 69.388022,89.140786 A 2.8423261,2.8423261 0 0 0 67.733623,85.108608 L 56.669764,61.703813 51.608838,65.252687 64.075634,87.14291 a 2.8577407,2.8577407 0 0 0 5.312388,1.997884 z"
       fill="#ffb8b8"
       id="path25"
       style="stroke-width:0.264583" />
    <path
       d="m 59.206993,65.608552 -5.876012,2.627543 a 1.2744688,1.2744688 0 0 1 -1.747332,-0.819232 l -1.732798,-6.17886 a 3.5394291,3.5394291 0 0 1 6.470618,-2.870705 l 3.439946,5.392761 a 1.2744662,1.2744662 0 0 1 -0.554422,1.848493 z"
       fill="#cccccc"
       id="path27"
       style="stroke-width:0.264583" />
    <path
       d="m 32.069327,91.461174 a 2.842342,2.842342 0 0 0 1.969712,-3.887896 L 44.517155,63.900457 38.523133,62.390745 30.108286,86.13508 a 2.8577407,2.8577407 0 0 0 1.961049,5.326094 z"
       fill="#ffb8b8"
       id="path29"
       style="stroke-width:0.264583" />
    <polygon
       points="94.289,445.033 105.809,449.227 127.47,406.789 110.467,400.599 "
       fill="#ffb8b8"
       id="polygon31"
       transform="matrix(0.26458333,0,0,0.26458333,4.2657203,16.621919)" />
    <path
       d="m 37.108766,140.4505 -9.57938,-3.48785 1.347576,-3.70112 5.878263,2.14027 a 3.9388149,3.9388149 0 0 1 2.353542,5.04869 v 0 z"
       fill="#2f2e41"
       id="path33"
       style="stroke-width:0.264583" />
    <path
       d="m 36.422583,127.90858 a 1.2630335,1.2630335 0 0 1 -0.540774,-0.12142 l -3.502893,-1.65917 a 1.2696322,1.2696322 0 0 1 -0.653132,-1.58478 l 9.885831,-27.375952 a 1.2743868,1.2743868 0 0 1 2.291495,-0.222644 l 5.228788,8.714606 a 1.2758393,1.2758393 0 0 1 0.01376,1.28801 L 37.53386,127.26776 a 1.2806653,1.2806653 0 0 1 -1.111277,0.64082 z"
       fill="#2f2e41"
       id="path35"
       style="stroke-width:0.264583" />
    <circle
       cx="48.309235"
       cy="46.761505"
       r="6.4984388"
       fill="#ffb8b8"
       id="circle37"
       style="stroke-width:0.264583" />
    <path
       d="m 57.502714,76.307415 -11.5062,-3.164297 -6.119709,-12.239276 a 3.8565666,3.8565666 0 0 1 3.449508,-5.581285 h 9.154427 a 3.8515395,3.8515395 0 0 1 2.57443,0.984608 c 2.455709,2.199878 7.614941,8.54202 2.497334,19.88962 z"
       fill="#cccccc"
       id="path39"
       style="stroke-width:0.264583" />
    <path
       d="M 43.098718,68.134196 37.26904,65.405394 a 1.2744635,1.2744635 0 0 1 -0.522361,-1.857806 l 3.542895,-5.350587 a 3.5394291,3.5394291 0 0 1 6.4024,3.019785 l -1.832012,6.128525 a 1.2744688,1.2744688 0 0 1 -1.761244,0.788885 z"
       fill="#cccccc"
       id="path41"
       style="stroke-width:0.264583" />
    <polygon
       points="173.428,456.629 185.687,456.629 191.52,409.341 173.425,409.342 "
       fill="#ffb8b8"
       id="polygon43"
       transform="matrix(0.26458333,0,0,0.26458333,4.2657203,16.621919)" />
    <path
       d="m 59.651389,140.45004 -10.194589,4.6e-4 -1.8e-4,-3.93881 6.255779,-2.9e-4 a 3.938815,3.938815 0 0 1 3.93899,3.93863 v 0 z"
       fill="#2f2e41"
       id="path45"
       style="stroke-width:0.264583" />
    <path
       d="m 51.376584,132.67065 a 1.2677034,1.2677034 0 0 1 -1.242931,-1.00922 C 49.201262,127.26831 44.358767,104.76616 40.579229,93.175452 36.73373,81.382843 43.282821,76.011479 44.63472,75.054529 a 0.99560061,0.99560061 0 0 0 0.331475,-0.400204 l 0.982186,-2.160603 a 1.2790831,1.2790831 0 0 1 1.163413,-0.747861 h 0.008 c 7.362981,0.04398 9.838267,2.364994 10.560672,3.360941 a 1.2596812,1.2596812 0 0 1 0.199411,1.038815 l -4.658699,19.220585 a 0.9922113,0.9922113 0 0 0 -0.01929,0.364249 l 4.635029,34.898519 a 1.2747122,1.2747122 0 0 1 -1.117293,1.43404 l -5.193387,0.59906 a 1.3024458,1.3024458 0 0 1 -0.149619,0.009 z"
       fill="#2f2e41"
       id="path47"
       style="stroke-width:0.264583" />
    <path
       d="m 41.480889,42.674006 a 8.8383903,8.8383903 0 0 0 5.051076,1.561002 5.4162298,5.4162298 0 0 1 -2.146726,0.883179 17.822002,17.822002 0 0 0 7.279746,0.04091 4.7115306,4.7115306 0 0 0 1.523942,-0.52341 1.9285982,1.9285982 0 0 0 0.940649,-1.258014 c 0.159716,-0.912421 -0.551254,-1.741374 -1.290108,-2.300044 A 9.5163665,9.5163665 0 0 0 44.842563,39.47963 c -0.893302,0.230907 -1.788191,0.621046 -2.368417,1.338437 -0.580226,0.717392 -0.752097,1.823376 -0.19929,2.562101 z"
       fill="#2f2e41"
       id="path49"
       style="stroke-width:0.264583" />
    <circle
       cx="160.76756"
       cy="67.421921"
       r="3.4395833"
       fill="#00bfa6"
       id="circle51"
       style="stroke-width:0.264583" />
    <path
       d="m 160.42662,68.73404 a 0.35672447,0.35672447 0 0 1 -0.21464,-0.0713 l -0.004,-0.0029 -0.80833,-0.618884 a 0.35911895,0.35911895 0 1 1 0.43683,-0.570127 l 0.52357,0.401468 1.23728,-1.613598 a 0.35910572,0.35910572 0 0 1 0.50351,-0.06647 l -0.008,0.01045 0.008,-0.01029 a 0.35952377,0.35952377 0 0 1 0.0665,0.503502 l -1.45535,1.897978 a 0.35926183,0.35926183 0 0 1 -0.2857,0.140152 z"
       fill="#ffffff"
       id="path53"
       style="stroke-width:0.264583" />
    <circle
       cx="160.76756"
       cy="77.476082"
       r="3.4395833"
       fill="#00bfa6"
       id="circle55"
       style="stroke-width:0.264583" />
    <path
       d="m 160.42662,78.788207 a 0.35672447,0.35672447 0 0 1 -0.21464,-0.0713 l -0.004,-0.0029 -0.80833,-0.618885 a 0.35911895,0.35911895 0 1 1 0.43683,-0.570126 l 0.52357,0.401468 1.23728,-1.613599 a 0.35910572,0.35910572 0 0 1 0.50351,-0.06647 l -0.008,0.01045 0.008,-0.01029 a 0.35952377,0.35952377 0 0 1 0.0665,0.503502 l -1.45535,1.897978 a 0.35926183,0.35926183 0 0 1 -0.2857,0.140153 z"
       fill="#ffffff"
       id="path57"
       style="stroke-width:0.264583" />
    <circle
       cx="162.61964"
       cy="89.117752"
       r="3.4395833"
       fill="#00bfa6"
       id="circle59"
       style="stroke-width:0.264583" />
    <path
       d="m 162.27871,90.429873 a 0.35672447,0.35672447 0 0 1 -0.21464,-0.0713 l -0.004,-0.0029 -0.80833,-0.618884 a 0.35911895,0.35911895 0 1 1 0.43683,-0.570127 l 0.52357,0.401468 1.23729,-1.613598 a 0.35910572,0.35910572 0 0 1 0.5035,-0.06647 l -0.008,0.01045 0.008,-0.01029 a 0.35952377,0.35952377 0 0 1 0.0665,0.503502 l -1.45534,1.897978 a 0.35926183,0.35926183 0 0 1 -0.2857,0.140152 z"
       fill="#ffffff"
       id="path61"
       style="stroke-width:0.264583" />
    <path
       d="m 195.78677,117.83548 c -0.0357,0 -0.0581,-7.9e-4 -0.0659,-0.001 l -4.27028,5.3e-4 v -0.62963 h 4.28572 c 0.0992,0.004 2.12369,0.0607 3.98898,-2.20262 2.77968,-3.37319 5.06239,-11.72361 0.15157,-32.34902 -6.60327,-27.733786 -1.09586,-52.235038 1.57845,-61.481787 a 3.0702117,3.0702117 0 0 0 -2.95392,-3.91996 h -63.77363 a 3.0839674,3.0839674 0 0 0 -2.48693,1.265867 c -1.1329,1.558396 -2.6876,4.552204 -3.66048,9.965531 l -0.61964,-0.111292 c 0.99394,-5.530924 2.59922,-8.612814 3.77086,-10.224394 a 3.7151151,3.7151151 0 0 1 2.99619,-1.525344 h 63.77364 a 3.6999333,3.6999333 0 0 1 3.5588,4.724522 c -2.66055,9.198787 -8.13944,33.572915 -1.57077,61.16113 4.97985,20.915477 2.58585,29.446817 -0.29929,32.920687 -1.90302,2.29118 -3.99981,2.40723 -4.40332,2.40723 z"
       fill="#e6e6e6"
       id="path63"
       style="stroke-width:0.264583" />
    <path
       d="m 184.29605,129.32621 c -0.0357,0 -0.0581,-8e-4 -0.066,-0.001 l -4.27028,5.3e-4 v -0.62963 h 4.28572 c 0.0998,0.003 2.12369,0.0607 3.98898,-2.20262 2.77968,-3.37319 5.06239,-11.7236 0.15157,-32.349018 -6.60326,-27.733786 -1.09586,-52.235039 1.57845,-61.481787 a 3.0702117,3.0702117 0 0 0 -2.95392,-3.92009 h -63.77364 a 3.0839674,3.0839674 0 0 0 -2.48692,1.265867 c -1.1329,1.558396 -2.6876,4.552204 -3.66045,9.965531 l -0.61971,-0.111292 c 0.99398,-5.530926 2.59925,-8.612817 3.77089,-10.224394 a 3.7151151,3.7151151 0 0 1 2.99619,-1.525344 h 63.77365 a 3.6999333,3.6999333 0 0 1 3.5588,4.724522 c -2.66055,9.198787 -8.13944,33.572915 -1.57077,61.16113 4.97985,20.915475 2.58585,29.446815 -0.29929,32.920685 -1.90302,2.29118 -3.99981,2.40724 -4.40332,2.40724 z"
       fill="#cccccc"
       id="path65"
       style="stroke-width:0.264583" />
    <path
       d="m 177.50776,105.49017 c -6.56963,-27.588103 -1.09012,-51.964165 1.57161,-61.161082 a 3.7025447,3.7025447 0 0 0 -3.5587,-4.725458 h -63.77505 a 3.7123925,3.7123925 0 0 0 -2.99516,1.524 c -2.5744,3.540125 -7.91632,15.279687 -1.94988,47.762583 3.19076,17.377837 3.14321,29.225877 2.10077,37.031087 -0.58485,4.39474 -1.48699,7.50622 -2.30464,9.60438 l -0.0872,0.22225 a 3.6087632,3.6087632 0 0 0 -0.26459,1.33615 3.6603199,3.6603199 0 0 0 1.19851,2.75167 3.5038003,3.5038003 0 0 0 0.83871,0.58208 3.5486207,3.5486207 0 0 0 0.80176,0.29369 3.6183834,3.6183834 0 0 0 0.86519,0.10318 h 62.79087 c 0.008,0 0.0291,0.003 0.0661,0.003 0.40216,0 2.50036,-0.11642 4.4027,-2.40771 2.88393,-3.474 5.27836,-12.00416 0.29895,-32.91947 z m -0.76468,32.49348 c -1.86527,2.26483 -3.8893,2.20662 -3.98723,2.20398 h -62.80676 a 3.078726,3.078726 0 0 1 -2.54803,-1.35202 3.0075028,3.0075028 0 0 1 -0.42595,-2.49502 2.5959011,2.5959011 0 0 1 0.1164,-0.35984 38.729621,38.729621 0 0 0 2.06642,-7.4242 c 1.49228,-8.13594 1.77004,-20.69042 -1.73827,-39.780108 -5.92134,-32.242125 -0.68523,-43.804416 1.83878,-47.278395 a 3.0906984,3.0906984 0 0 1 2.48718,-1.264709 h 63.77505 a 3.0701641,3.0701641 0 0 1 2.95279,3.91848 c -2.6749,9.247187 -8.1809,33.750249 -1.57691,61.483872 4.91069,20.62427 2.62736,28.97452 -0.15347,32.34796 z"
       fill="#3f3d56"
       id="path67"
       style="stroke-width:0.264583" />
    <path
       d="m 147.21017,69.644506 h -32.85755 a 2.5185132,2.5185132 0 1 1 0,-5.037026 h 32.85755 a 2.5185132,2.5185132 0 1 1 0,5.037026 z"
       fill="#cccccc"
       id="path69"
       style="stroke-width:0.264583" />
    <path
       d="m 147.21017,80.492423 h -32.85755 a 2.5185135,2.5185135 0 1 1 0,-5.037027 h 32.85755 a 2.5185135,2.5185135 0 1 1 0,5.037027 z"
       fill="#cccccc"
       id="path71"
       style="stroke-width:0.264583" />
    <path
       d="m 149.856,91.604922 h -32.85754 a 2.5185132,2.5185132 0 1 1 0,-5.037026 H 149.856 a 2.5185132,2.5185132 0 1 1 0,5.037026 z"
       fill="#cccccc"
       id="path73"
       style="stroke-width:0.264583" />
    <path
       d="m 151.70809,103.24659 h -32.85755 a 2.5185135,2.5185135 0 1 1 0,-5.037027 h 32.85755 a 2.5185135,2.5185135 0 1 1 0,5.037027 z"
       fill="#cccccc"
       id="path75"
       style="stroke-width:0.264583" />
    <path
       d="m 151.72202,50.089213 h -23.61107 a 2.5185158,2.5185158 0 1 1 0,-5.037029 h 23.61107 a 2.5185145,2.5185145 0 1 1 0,5.037029 z"
       fill="#00bfa6"
       id="path77"
       style="stroke-width:0.264583" />
    <circle
       cx="164.73631"
       cy="100.72807"
       r="3.4395833"
       fill="#cccccc"
       id="circle79"
       style="fill:#ff0000;stroke-width:0.264583" />
    <path
       d="m 153.29559,114.62367 h -32.85755 a 2.5185132,2.5185132 0 1 1 0,-5.03702 h 32.85755 a 2.5185132,2.5185132 0 1 1 0,5.03702 z"
       fill="#cccccc"
       id="path81"
       style="stroke-width:0.264583" />
    <circle
       cx="166.32382"
       cy="112.10516"
       r="3.4395833"
       fill="#cccccc"
       id="circle83"
       style="fill:#ff0000;stroke-width:0.264583" />
    <text
       xml:space="preserve"
       transform="matrix(0.28406792,-0.22047406,0.25023623,0.32241474,-94.662098,84.84386)"
       id="text7165"
       style="font-style:normal;font-weight:normal;font-size:66.6667px;line-height:1.25;font-family:sans-serif;white-space:pre;shape-inside:url(#rect7167);fill:#808000;fill-opacity:1;stroke:none"><tspan
         x="239.98047"
         y="240.49222"
         id="tspan29263"><tspan
           style="font-family:'DejaVu Serif';-inkscape-font-specification:'DejaVu Serif, Normal'"
           id="tspan29261">MAT API</tspan></tspan></text>
  </g>
</svg>
